<svg width="636" height="429" viewBox="0 0 636 429" fill="none" xmlns="http://www.w3.org/2000/svg">
<path d="M15 411C24.5 379.833 69.8 316 181 316C320 316 345 262.5 345 222.5C345 182.5 380 128 455.5 128C531 128 621 100.5 621 34.5" stroke="white"/>
<rect x="10" y="405" width="10" height="10" fill="white"/>
<rect x="176" y="311" width="10" height="10" fill="white"/>
<rect x="340" y="217" width="10" height="10" fill="white"/>
<rect x="450" y="123" width="10" height="10" fill="white"/>
<rect x="607" y="20" width="28" height="28" fill="white"/>
<rect x="616" y="29" width="10" height="10" fill="#133D8D"/>
<rect x="607" y="20" width="28" height="28" stroke="white" stroke-width="2"/>
<path d="M57.936 421H45.96V418.48L50.256 414.136C51.12 413.24 51.816 412.496 52.344 411.904C52.872 411.296 53.256 410.752 53.496 410.272C53.736 409.776 53.856 409.248 53.856 408.688C53.856 408 53.664 407.488 53.28 407.152C52.912 406.816 52.408 406.648 51.768 406.648C51.112 406.648 50.472 406.8 49.848 407.104C49.224 407.408 48.568 407.84 47.88 408.4L45.912 406.072C46.408 405.64 46.928 405.24 47.472 404.872C48.032 404.504 48.672 404.208 49.392 403.984C50.128 403.744 51.008 403.624 52.032 403.624C53.152 403.624 54.112 403.832 54.912 404.248C55.728 404.648 56.352 405.2 56.784 405.904C57.232 406.592 57.456 407.376 57.456 408.256C57.456 408.976 57.344 409.64 57.12 410.248C56.912 410.856 56.6 411.448 56.184 412.024C55.784 412.584 55.288 413.168 54.696 413.776C54.104 414.368 53.432 415.016 52.68 415.72L50.472 417.784V417.952H57.936V421ZM72.7744 412.432C72.7744 413.808 72.6624 415.04 72.4384 416.128C72.2304 417.216 71.8864 418.144 71.4064 418.912C70.9424 419.664 70.3264 420.24 69.5584 420.64C68.8064 421.04 67.8784 421.24 66.7744 421.24C65.3984 421.24 64.2704 420.888 63.3904 420.184C62.5104 419.48 61.8544 418.472 61.4224 417.16C61.0064 415.848 60.7984 414.272 60.7984 412.432C60.7984 410.576 60.9904 408.992 61.3744 407.68C61.7584 406.368 62.3904 405.36 63.2704 404.656C64.1504 403.952 65.3184 403.6 66.7744 403.6C68.1504 403.6 69.2784 403.952 70.1584 404.656C71.0384 405.344 71.6944 406.352 72.1264 407.68C72.5584 408.992 72.7744 410.576 72.7744 412.432ZM64.3984 412.432C64.3984 413.728 64.4704 414.816 64.6144 415.696C64.7584 416.56 64.9984 417.216 65.3344 417.664C65.6864 418.096 66.1664 418.312 66.7744 418.312C67.3824 418.312 67.8544 418.096 68.1904 417.664C68.5424 417.232 68.7904 416.584 68.9344 415.72C69.0944 414.84 69.1744 413.744 69.1744 412.432C69.1744 411.12 69.0944 410.032 68.9344 409.168C68.7904 408.288 68.5424 407.632 68.1904 407.2C67.8544 406.752 67.3824 406.528 66.7744 406.528C66.1664 406.528 65.6864 406.752 65.3344 407.2C64.9984 407.632 64.7584 408.288 64.6144 409.168C64.4704 410.032 64.3984 411.12 64.3984 412.432ZM84.7808 421H81.1568V411.088C81.1568 410.816 81.1568 410.48 81.1568 410.08C81.1727 409.68 81.1887 409.264 81.2047 408.832C81.2207 408.4 81.2367 408.016 81.2527 407.68C81.1727 407.776 80.9967 407.952 80.7248 408.208C80.4688 408.448 80.2287 408.664 80.0048 408.856L78.0367 410.44L76.2847 408.256L81.8047 403.864H84.7808V421ZM102.667 411.184C102.667 412.16 102.595 413.136 102.451 414.112C102.307 415.072 102.051 415.984 101.683 416.848C101.331 417.696 100.827 418.456 100.171 419.128C99.5311 419.784 98.7071 420.304 97.6991 420.688C96.7071 421.056 95.4991 421.24 94.0751 421.24C93.7391 421.24 93.3471 421.224 92.8991 421.192C92.4511 421.176 92.0751 421.136 91.7711 421.072V418.168C92.0911 418.232 92.4271 418.288 92.7791 418.336C93.1311 418.384 93.4831 418.408 93.8351 418.408C94.9071 418.408 95.7871 418.28 96.4751 418.024C97.1791 417.768 97.7311 417.4 98.1311 416.92C98.5311 416.44 98.8191 415.872 98.9951 415.216C99.1871 414.56 99.2991 413.84 99.3311 413.056H99.1871C98.9631 413.424 98.6911 413.76 98.3711 414.064C98.0671 414.368 97.6751 414.608 97.1951 414.784C96.7311 414.96 96.1311 415.048 95.3951 415.048C94.4191 415.048 93.5711 414.84 92.8511 414.424C92.1311 413.992 91.5711 413.376 91.1711 412.576C90.7711 411.76 90.5711 410.776 90.5711 409.624C90.5711 408.376 90.8031 407.312 91.2671 406.432C91.7471 405.536 92.4271 404.856 93.3071 404.392C94.1871 403.912 95.2191 403.672 96.4031 403.672C97.2831 403.672 98.0991 403.824 98.8511 404.128C99.6191 404.432 100.283 404.896 100.843 405.52C101.419 406.128 101.867 406.904 102.187 407.848C102.507 408.792 102.667 409.904 102.667 411.184ZM96.4751 406.576C95.7711 406.576 95.1951 406.816 94.7471 407.296C94.2991 407.776 94.0751 408.536 94.0751 409.576C94.0751 410.408 94.2671 411.064 94.6511 411.544C95.0351 412.024 95.6191 412.264 96.4031 412.264C96.9471 412.264 97.4111 412.144 97.7951 411.904C98.1951 411.664 98.5071 411.368 98.7311 411.016C98.9551 410.648 99.0671 410.272 99.0671 409.888C99.0671 409.488 99.0111 409.096 98.8991 408.712C98.7871 408.312 98.6191 407.952 98.3951 407.632C98.1871 407.312 97.9231 407.056 97.6031 406.864C97.2831 406.672 96.9071 406.576 96.4751 406.576Z" fill="white"/>
<path d="M164.167 357H152.191V354.48L156.487 350.136C157.351 349.24 158.047 348.496 158.575 347.904C159.103 347.296 159.487 346.752 159.727 346.272C159.967 345.776 160.087 345.248 160.087 344.688C160.087 344 159.895 343.488 159.511 343.152C159.143 342.816 158.639 342.648 157.999 342.648C157.343 342.648 156.703 342.8 156.079 343.104C155.455 343.408 154.799 343.84 154.111 344.4L152.143 342.072C152.639 341.64 153.159 341.24 153.703 340.872C154.263 340.504 154.903 340.208 155.623 339.984C156.359 339.744 157.239 339.624 158.263 339.624C159.383 339.624 160.343 339.832 161.143 340.248C161.959 340.648 162.583 341.2 163.015 341.904C163.463 342.592 163.687 343.376 163.687 344.256C163.687 344.976 163.575 345.64 163.351 346.248C163.143 346.856 162.831 347.448 162.415 348.024C162.015 348.584 161.519 349.168 160.927 349.776C160.335 350.368 159.663 351.016 158.911 351.72L156.703 353.784V353.952H164.167V357ZM179.006 348.432C179.006 349.808 178.894 351.04 178.67 352.128C178.462 353.216 178.118 354.144 177.638 354.912C177.174 355.664 176.558 356.24 175.79 356.64C175.038 357.04 174.11 357.24 173.006 357.24C171.63 357.24 170.502 356.888 169.622 356.184C168.742 355.48 168.086 354.472 167.654 353.16C167.238 351.848 167.03 350.272 167.03 348.432C167.03 346.576 167.222 344.992 167.606 343.68C167.99 342.368 168.622 341.36 169.502 340.656C170.382 339.952 171.55 339.6 173.006 339.6C174.382 339.6 175.51 339.952 176.39 340.656C177.27 341.344 177.926 342.352 178.358 343.68C178.79 344.992 179.006 346.576 179.006 348.432ZM170.63 348.432C170.63 349.728 170.702 350.816 170.846 351.696C170.99 352.56 171.23 353.216 171.566 353.664C171.918 354.096 172.398 354.312 173.006 354.312C173.614 354.312 174.086 354.096 174.422 353.664C174.774 353.232 175.022 352.584 175.166 351.72C175.326 350.84 175.406 349.744 175.406 348.432C175.406 347.12 175.326 346.032 175.166 345.168C175.022 344.288 174.774 343.632 174.422 343.2C174.086 342.752 173.614 342.528 173.006 342.528C172.398 342.528 171.918 342.752 171.566 343.2C171.23 343.632 170.99 344.288 170.846 345.168C170.702 346.032 170.63 347.12 170.63 348.432ZM194.036 357H182.06V354.48L186.356 350.136C187.22 349.24 187.916 348.496 188.444 347.904C188.972 347.296 189.356 346.752 189.596 346.272C189.836 345.776 189.956 345.248 189.956 344.688C189.956 344 189.764 343.488 189.38 343.152C189.012 342.816 188.508 342.648 187.868 342.648C187.212 342.648 186.572 342.8 185.948 343.104C185.324 343.408 184.668 343.84 183.98 344.4L182.012 342.072C182.508 341.64 183.028 341.24 183.572 340.872C184.132 340.504 184.772 340.208 185.492 339.984C186.228 339.744 187.108 339.624 188.132 339.624C189.252 339.624 190.212 339.832 191.012 340.248C191.828 340.648 192.452 341.2 192.884 341.904C193.332 342.592 193.556 343.376 193.556 344.256C193.556 344.976 193.444 345.64 193.22 346.248C193.012 346.856 192.7 347.448 192.284 348.024C191.884 348.584 191.388 349.168 190.796 349.776C190.204 350.368 189.532 351.016 188.78 351.72L186.572 353.784V353.952H194.036V357ZM208.874 348.432C208.874 349.808 208.762 351.04 208.538 352.128C208.33 353.216 207.986 354.144 207.506 354.912C207.042 355.664 206.426 356.24 205.658 356.64C204.906 357.04 203.978 357.24 202.874 357.24C201.498 357.24 200.37 356.888 199.49 356.184C198.61 355.48 197.954 354.472 197.522 353.16C197.106 351.848 196.898 350.272 196.898 348.432C196.898 346.576 197.09 344.992 197.474 343.68C197.858 342.368 198.49 341.36 199.37 340.656C200.25 339.952 201.418 339.6 202.874 339.6C204.25 339.6 205.378 339.952 206.258 340.656C207.138 341.344 207.794 342.352 208.226 343.68C208.658 344.992 208.874 346.576 208.874 348.432ZM200.498 348.432C200.498 349.728 200.57 350.816 200.714 351.696C200.858 352.56 201.098 353.216 201.434 353.664C201.786 354.096 202.266 354.312 202.874 354.312C203.482 354.312 203.954 354.096 204.29 353.664C204.642 353.232 204.89 352.584 205.034 351.72C205.194 350.84 205.274 349.744 205.274 348.432C205.274 347.12 205.194 346.032 205.034 345.168C204.89 344.288 204.642 343.632 204.29 343.2C203.954 342.752 203.482 342.528 202.874 342.528C202.266 342.528 201.786 342.752 201.434 343.2C201.098 343.632 200.858 344.288 200.714 345.168C200.57 346.032 200.498 347.12 200.498 348.432Z" fill="white"/>
<path d="M372.167 231H360.191V228.48L364.487 224.136C365.351 223.24 366.047 222.496 366.575 221.904C367.103 221.296 367.487 220.752 367.727 220.272C367.967 219.776 368.087 219.248 368.087 218.688C368.087 218 367.895 217.488 367.511 217.152C367.143 216.816 366.639 216.648 365.999 216.648C365.343 216.648 364.703 216.8 364.079 217.104C363.455 217.408 362.799 217.84 362.111 218.4L360.143 216.072C360.639 215.64 361.159 215.24 361.703 214.872C362.263 214.504 362.903 214.208 363.623 213.984C364.359 213.744 365.239 213.624 366.263 213.624C367.383 213.624 368.343 213.832 369.143 214.248C369.959 214.648 370.583 215.2 371.015 215.904C371.463 216.592 371.687 217.376 371.687 218.256C371.687 218.976 371.575 219.64 371.351 220.248C371.143 220.856 370.831 221.448 370.415 222.024C370.015 222.584 369.519 223.168 368.927 223.776C368.335 224.368 367.663 225.016 366.911 225.72L364.703 227.784V227.952H372.167V231ZM387.006 222.432C387.006 223.808 386.894 225.04 386.67 226.128C386.462 227.216 386.118 228.144 385.638 228.912C385.174 229.664 384.558 230.24 383.79 230.64C383.038 231.04 382.11 231.24 381.006 231.24C379.63 231.24 378.502 230.888 377.622 230.184C376.742 229.48 376.086 228.472 375.654 227.16C375.238 225.848 375.03 224.272 375.03 222.432C375.03 220.576 375.222 218.992 375.606 217.68C375.99 216.368 376.622 215.36 377.502 214.656C378.382 213.952 379.55 213.6 381.006 213.6C382.382 213.6 383.51 213.952 384.39 214.656C385.27 215.344 385.926 216.352 386.358 217.68C386.79 218.992 387.006 220.576 387.006 222.432ZM378.63 222.432C378.63 223.728 378.702 224.816 378.846 225.696C378.99 226.56 379.23 227.216 379.566 227.664C379.918 228.096 380.398 228.312 381.006 228.312C381.614 228.312 382.086 228.096 382.422 227.664C382.774 227.232 383.022 226.584 383.166 225.72C383.326 224.84 383.406 223.744 383.406 222.432C383.406 221.12 383.326 220.032 383.166 219.168C383.022 218.288 382.774 217.632 382.422 217.2C382.086 216.752 381.614 216.528 381.006 216.528C380.398 216.528 379.918 216.752 379.566 217.2C379.23 217.632 378.99 218.288 378.846 219.168C378.702 220.032 378.63 221.12 378.63 222.432ZM402.036 231H390.06V228.48L394.356 224.136C395.22 223.24 395.916 222.496 396.444 221.904C396.972 221.296 397.356 220.752 397.596 220.272C397.836 219.776 397.956 219.248 397.956 218.688C397.956 218 397.764 217.488 397.38 217.152C397.012 216.816 396.508 216.648 395.868 216.648C395.212 216.648 394.572 216.8 393.948 217.104C393.324 217.408 392.668 217.84 391.98 218.4L390.012 216.072C390.508 215.64 391.028 215.24 391.572 214.872C392.132 214.504 392.772 214.208 393.492 213.984C394.228 213.744 395.108 213.624 396.132 213.624C397.252 213.624 398.212 213.832 399.012 214.248C399.828 214.648 400.452 215.2 400.884 215.904C401.332 216.592 401.556 217.376 401.556 218.256C401.556 218.976 401.444 219.64 401.22 220.248C401.012 220.856 400.7 221.448 400.284 222.024C399.884 222.584 399.388 223.168 398.796 223.776C398.204 224.368 397.532 225.016 396.78 225.72L394.572 227.784V227.952H402.036V231ZM413.946 231H410.322V221.088C410.322 220.816 410.322 220.48 410.322 220.08C410.338 219.68 410.354 219.264 410.37 218.832C410.386 218.4 410.402 218.016 410.418 217.68C410.338 217.776 410.162 217.952 409.89 218.208C409.634 218.448 409.394 218.664 409.17 218.856L407.202 220.44L405.45 218.256L410.97 213.864H413.946V231Z" fill="white"/>
<path d="M438.167 169H426.191V166.48L430.487 162.136C431.351 161.24 432.047 160.496 432.575 159.904C433.103 159.296 433.487 158.752 433.727 158.272C433.967 157.776 434.087 157.248 434.087 156.688C434.087 156 433.895 155.488 433.511 155.152C433.143 154.816 432.639 154.648 431.999 154.648C431.343 154.648 430.703 154.8 430.079 155.104C429.455 155.408 428.799 155.84 428.111 156.4L426.143 154.072C426.639 153.64 427.159 153.24 427.703 152.872C428.263 152.504 428.903 152.208 429.623 151.984C430.359 151.744 431.239 151.624 432.263 151.624C433.383 151.624 434.343 151.832 435.143 152.248C435.959 152.648 436.583 153.2 437.015 153.904C437.463 154.592 437.687 155.376 437.687 156.256C437.687 156.976 437.575 157.64 437.351 158.248C437.143 158.856 436.831 159.448 436.415 160.024C436.015 160.584 435.519 161.168 434.927 161.776C434.335 162.368 433.663 163.016 432.911 163.72L430.703 165.784V165.952H438.167V169ZM453.006 160.432C453.006 161.808 452.894 163.04 452.67 164.128C452.462 165.216 452.118 166.144 451.638 166.912C451.174 167.664 450.558 168.24 449.79 168.64C449.038 169.04 448.11 169.24 447.006 169.24C445.63 169.24 444.502 168.888 443.622 168.184C442.742 167.48 442.086 166.472 441.654 165.16C441.238 163.848 441.03 162.272 441.03 160.432C441.03 158.576 441.222 156.992 441.606 155.68C441.99 154.368 442.622 153.36 443.502 152.656C444.382 151.952 445.55 151.6 447.006 151.6C448.382 151.6 449.51 151.952 450.39 152.656C451.27 153.344 451.926 154.352 452.358 155.68C452.79 156.992 453.006 158.576 453.006 160.432ZM444.63 160.432C444.63 161.728 444.702 162.816 444.846 163.696C444.99 164.56 445.23 165.216 445.566 165.664C445.918 166.096 446.398 166.312 447.006 166.312C447.614 166.312 448.086 166.096 448.422 165.664C448.774 165.232 449.022 164.584 449.166 163.72C449.326 162.84 449.406 161.744 449.406 160.432C449.406 159.12 449.326 158.032 449.166 157.168C449.022 156.288 448.774 155.632 448.422 155.2C448.086 154.752 447.614 154.528 447.006 154.528C446.398 154.528 445.918 154.752 445.566 155.2C445.23 155.632 444.99 156.288 444.846 157.168C444.702 158.032 444.63 159.12 444.63 160.432ZM468.036 169H456.06V166.48L460.356 162.136C461.22 161.24 461.916 160.496 462.444 159.904C462.972 159.296 463.356 158.752 463.596 158.272C463.836 157.776 463.956 157.248 463.956 156.688C463.956 156 463.764 155.488 463.38 155.152C463.012 154.816 462.508 154.648 461.868 154.648C461.212 154.648 460.572 154.8 459.948 155.104C459.324 155.408 458.668 155.84 457.98 156.4L456.012 154.072C456.508 153.64 457.028 153.24 457.572 152.872C458.132 152.504 458.772 152.208 459.492 151.984C460.228 151.744 461.108 151.624 462.132 151.624C463.252 151.624 464.212 151.832 465.012 152.248C465.828 152.648 466.452 153.2 466.884 153.904C467.332 154.592 467.556 155.376 467.556 156.256C467.556 156.976 467.444 157.64 467.22 158.248C467.012 158.856 466.7 159.448 466.284 160.024C465.884 160.584 465.388 161.168 464.796 161.776C464.204 162.368 463.532 163.016 462.78 163.72L460.572 165.784V165.952H468.036V169ZM482.97 169H470.994V166.48L475.29 162.136C476.154 161.24 476.85 160.496 477.378 159.904C477.906 159.296 478.29 158.752 478.53 158.272C478.77 157.776 478.89 157.248 478.89 156.688C478.89 156 478.698 155.488 478.314 155.152C477.946 154.816 477.442 154.648 476.802 154.648C476.146 154.648 475.506 154.8 474.882 155.104C474.258 155.408 473.602 155.84 472.914 156.4L470.946 154.072C471.442 153.64 471.962 153.24 472.506 152.872C473.066 152.504 473.706 152.208 474.426 151.984C475.162 151.744 476.042 151.624 477.066 151.624C478.186 151.624 479.146 151.832 479.946 152.248C480.762 152.648 481.386 153.2 481.818 153.904C482.266 154.592 482.49 155.376 482.49 156.256C482.49 156.976 482.378 157.64 482.154 158.248C481.946 158.856 481.634 159.448 481.218 160.024C480.818 160.584 480.322 161.168 479.73 161.776C479.138 162.368 478.466 163.016 477.714 163.72L475.506 165.784V165.952H482.97V169Z" fill="white"/>
<path d="M546.167 26H534.191V23.48L538.487 19.136C539.351 18.24 540.047 17.496 540.575 16.904C541.103 16.296 541.487 15.752 541.727 15.272C541.967 14.776 542.087 14.248 542.087 13.688C542.087 13 541.895 12.488 541.511 12.152C541.143 11.816 540.639 11.648 539.999 11.648C539.343 11.648 538.703 11.8 538.079 12.104C537.455 12.408 536.799 12.84 536.111 13.4L534.143 11.072C534.639 10.64 535.159 10.24 535.703 9.872C536.263 9.504 536.903 9.208 537.623 8.984C538.359 8.744 539.239 8.624 540.263 8.624C541.383 8.624 542.343 8.832 543.143 9.248C543.959 9.648 544.583 10.2 545.015 10.904C545.463 11.592 545.687 12.376 545.687 13.256C545.687 13.976 545.575 14.64 545.351 15.248C545.143 15.856 544.831 16.448 544.415 17.024C544.015 17.584 543.519 18.168 542.927 18.776C542.335 19.368 541.663 20.016 540.911 20.72L538.703 22.784V22.952H546.167V26ZM561.006 17.432C561.006 18.808 560.894 20.04 560.67 21.128C560.462 22.216 560.118 23.144 559.638 23.912C559.174 24.664 558.558 25.24 557.79 25.64C557.038 26.04 556.11 26.24 555.006 26.24C553.63 26.24 552.502 25.888 551.622 25.184C550.742 24.48 550.086 23.472 549.654 22.16C549.238 20.848 549.03 19.272 549.03 17.432C549.03 15.576 549.222 13.992 549.606 12.68C549.99 11.368 550.622 10.36 551.502 9.656C552.382 8.952 553.55 8.6 555.006 8.6C556.382 8.6 557.51 8.952 558.39 9.656C559.27 10.344 559.926 11.352 560.358 12.68C560.79 13.992 561.006 15.576 561.006 17.432ZM552.63 17.432C552.63 18.728 552.702 19.816 552.846 20.696C552.99 21.56 553.23 22.216 553.566 22.664C553.918 23.096 554.398 23.312 555.006 23.312C555.614 23.312 556.086 23.096 556.422 22.664C556.774 22.232 557.022 21.584 557.166 20.72C557.326 19.84 557.406 18.744 557.406 17.432C557.406 16.12 557.326 15.032 557.166 14.168C557.022 13.288 556.774 12.632 556.422 12.2C556.086 11.752 555.614 11.528 555.006 11.528C554.398 11.528 553.918 11.752 553.566 12.2C553.23 12.632 552.99 13.288 552.846 14.168C552.702 15.032 552.63 16.12 552.63 17.432ZM576.036 26H564.06V23.48L568.356 19.136C569.22 18.24 569.916 17.496 570.444 16.904C570.972 16.296 571.356 15.752 571.596 15.272C571.836 14.776 571.956 14.248 571.956 13.688C571.956 13 571.764 12.488 571.38 12.152C571.012 11.816 570.508 11.648 569.868 11.648C569.212 11.648 568.572 11.8 567.948 12.104C567.324 12.408 566.668 12.84 565.98 13.4L564.012 11.072C564.508 10.64 565.028 10.24 565.572 9.872C566.132 9.504 566.772 9.208 567.492 8.984C568.228 8.744 569.108 8.624 570.132 8.624C571.252 8.624 572.212 8.832 573.012 9.248C573.828 9.648 574.452 10.2 574.884 10.904C575.332 11.592 575.556 12.376 575.556 13.256C575.556 13.976 575.444 14.64 575.22 15.248C575.012 15.856 574.7 16.448 574.284 17.024C573.884 17.584 573.388 18.168 572.796 18.776C572.204 19.368 571.532 20.016 570.78 20.72L568.572 22.784V22.952H576.036V26ZM590.298 12.704C590.298 13.488 590.13 14.168 589.794 14.744C589.474 15.32 589.034 15.792 588.474 16.16C587.93 16.528 587.306 16.8 586.602 16.976V17.048C587.978 17.208 589.018 17.624 589.722 18.296C590.442 18.968 590.802 19.872 590.802 21.008C590.802 22 590.554 22.896 590.058 23.696C589.578 24.48 588.826 25.104 587.802 25.568C586.794 26.016 585.49 26.24 583.89 26.24C582.946 26.24 582.066 26.16 581.25 26C580.434 25.84 579.666 25.608 578.946 25.304V22.232C579.682 22.6 580.45 22.88 581.25 23.072C582.066 23.264 582.818 23.36 583.506 23.36C584.802 23.36 585.706 23.136 586.218 22.688C586.746 22.24 587.01 21.608 587.01 20.792C587.01 20.312 586.89 19.912 586.65 19.592C586.41 19.256 585.986 19.008 585.378 18.848C584.786 18.672 583.954 18.584 582.882 18.584H581.586V15.8H582.906C583.962 15.8 584.762 15.704 585.306 15.512C585.866 15.304 586.242 15.032 586.434 14.696C586.642 14.344 586.746 13.944 586.746 13.496C586.746 12.888 586.554 12.416 586.17 12.08C585.802 11.728 585.178 11.552 584.298 11.552C583.754 11.552 583.258 11.624 582.81 11.768C582.362 11.896 581.954 12.056 581.586 12.248C581.234 12.44 580.922 12.624 580.65 12.8L578.97 10.304C579.418 9.984 579.914 9.696 580.458 9.44C581.018 9.184 581.634 8.984 582.306 8.84C582.978 8.696 583.73 8.624 584.562 8.624C586.322 8.624 587.714 8.984 588.738 9.704C589.778 10.408 590.298 11.408 590.298 12.704Z" fill="white"/>
<rect x="1" y="400" width="28" height="28" fill="#BD0007"/>
<rect x="10" y="409" width="10" height="10" fill="white"/>
<rect x="1" y="400" width="28" height="28" stroke="white" stroke-width="2"/>
</svg>
