<svg width="32" height="32" viewBox="0 0 32 32" fill="none" xmlns="http://www.w3.org/2000/svg">
<circle cx="16" cy="16" r="15.5" fill="#FFFFFA" stroke="#133D8D"/>
<path d="M14.375 8.88087C14.1188 8.65233 13.914 8.37213 13.774 8.05871C13.6339 7.7453 13.5619 7.40578 13.5625 7.0625C13.5625 5.71375 14.6512 4.625 16 4.625C17.3487 4.625 18.4375 5.71375 18.4375 7.0625C18.4375 7.78562 18.1247 8.43562 17.625 8.88087V11.125H20.4687C21.1431 11.125 21.6875 11.6694 21.6875 12.3438C21.6875 13.0181 21.1431 13.5625 20.4687 13.5625H17.625V24.7555C18.6816 24.5131 19.6713 24.0393 20.5227 23.3683C21.3742 22.6973 22.0661 21.8457 22.5487 20.875H22.5162C21.8094 20.875 21.4275 20.0462 21.8906 19.51L24.645 16.2925C25.1081 15.7481 25.9937 16.0081 26.0912 16.715L26.5544 19.9325C26.6275 20.4281 26.2375 20.875 25.7337 20.875H25.1894C23.8569 24.6612 20.2494 27.375 16 27.375C11.7506 27.375 8.14311 24.6612 6.81061 20.875H6.26623C5.76248 20.875 5.37248 20.4281 5.44561 19.9325L5.90873 16.715C6.00623 16.0081 6.89186 15.7481 7.35498 16.2925L10.1094 19.51C10.5725 20.0462 10.1906 20.875 9.48373 20.875H9.45123C9.93395 21.8456 10.6259 22.6971 11.4773 23.3682C12.3288 24.0392 13.3184 24.513 14.375 24.7555V13.5625H11.5312C10.8569 13.5625 10.3125 13.0181 10.3125 12.3438C10.3125 11.6694 10.8569 11.125 11.5312 11.125H14.375V8.88087ZM16 6.25C15.5531 6.25 15.1875 6.61562 15.1875 7.0625C15.1875 7.50938 15.5531 7.875 16 7.875C16.4469 7.875 16.8125 7.50938 16.8125 7.0625C16.8125 6.61562 16.4469 6.25 16 6.25Z" fill="#133D8D"/>
</svg>
