<svg width="236" height="71" viewBox="0 0 236 71" fill="none" xmlns="http://www.w3.org/2000/svg">
<path d="M32.64 37L17.376 3.976L2.352 37H0.48L17.424 0.183999L34.368 37H32.64ZM39.3401 0.999997H52.2521V2.392H40.9241V21.976H50.3801V23.368H40.9241V35.608H52.2521V37H39.3401V0.999997ZM55.9012 35.608H58.5412L75.8693 0.183999L93.1973 35.608H95.5012V41.656H94.0133V37H57.2932V41.656H55.9012V35.608ZM91.5653 35.608L75.7252 3.496L60.0292 35.608H91.5653ZM114.074 37.96C110.714 37.96 107.594 37.08 104.714 35.32C101.834 33.56 99.5455 31.224 97.8495 28.312C96.1855 25.368 95.3535 22.216 95.3535 18.856C95.3535 15.528 96.2015 12.424 97.8975 9.544C99.5935 6.632 101.882 4.328 104.762 2.632C107.642 0.903998 110.762 0.0399981 114.122 0.0399981C117.514 0.0399981 120.634 0.887999 123.482 2.584C126.33 4.28 128.586 6.584 130.25 9.496C131.946 12.376 132.794 15.496 132.794 18.856C132.794 22.312 131.946 25.512 130.25 28.456C128.586 31.368 126.314 33.688 123.434 35.416C120.586 37.112 117.466 37.96 114.074 37.96ZM114.074 36.568C117.146 36.568 119.994 35.784 122.618 34.216C125.242 32.616 127.322 30.472 128.858 27.784C130.426 25.064 131.21 22.12 131.21 18.952C131.21 15.816 130.442 12.904 128.906 10.216C127.37 7.528 125.29 5.4 122.666 3.832C120.042 2.232 117.194 1.432 114.122 1.432C111.018 1.432 108.154 2.232 105.53 3.832C102.906 5.4 100.81 7.528 99.2415 10.216C97.7055 12.904 96.9375 15.816 96.9375 18.952C96.9375 22.12 97.7055 25.064 99.2415 27.784C100.81 30.472 102.906 32.616 105.53 34.216C108.154 35.784 111.002 36.568 114.074 36.568ZM160.671 37L141.615 16.984V37H140.031V0.999997H141.615V14.056L156.639 0.999997H158.895L142.047 15.4L162.783 37H160.671ZM181.795 37.96C178.435 37.96 175.315 37.08 172.435 35.32C169.555 33.56 167.267 31.224 165.571 28.312C163.907 25.368 163.075 22.216 163.075 18.856C163.075 15.528 163.923 12.424 165.619 9.544C167.315 6.632 169.603 4.328 172.483 2.632C175.363 0.903998 178.483 0.0399981 181.843 0.0399981C185.235 0.0399981 188.355 0.887999 191.203 2.584C194.051 4.28 196.307 6.584 197.971 9.496C199.667 12.376 200.515 15.496 200.515 18.856C200.515 22.312 199.667 25.512 197.971 28.456C196.307 31.368 194.035 33.688 191.155 35.416C188.307 37.112 185.187 37.96 181.795 37.96ZM181.795 36.568C184.867 36.568 187.715 35.784 190.339 34.216C192.963 32.616 195.043 30.472 196.579 27.784C198.147 25.064 198.931 22.12 198.931 18.952C198.931 15.816 198.163 12.904 196.627 10.216C195.091 7.528 193.011 5.4 190.387 3.832C187.763 2.232 184.915 1.432 181.843 1.432C178.739 1.432 175.875 2.232 173.251 3.832C170.627 5.4 168.531 7.528 166.963 10.216C165.427 12.904 164.659 15.816 164.659 18.952C164.659 22.12 165.427 25.064 166.963 27.784C168.531 30.472 170.627 32.616 173.251 34.216C175.875 35.784 178.723 36.568 181.795 36.568ZM234.21 37L218.946 3.976L203.922 37H202.05L218.994 0.183999L235.938 37H234.21ZM11.198 68L2.464 58.826V68H1.738V51.5H2.464V57.484L9.35 51.5H10.384L2.662 58.1L12.166 68H11.198ZM29.7693 68H28.9993L25.8753 61.708H17.1193L14.0613 68H13.2913L21.5193 51.104L29.7693 68ZM25.6113 61.07L21.4753 52.688L17.4273 61.07H25.6113ZM32.0238 51.5H42.4078V68H41.6818V52.138H32.7498V68H32.0238V51.5ZM45.5993 51.5H46.3253V66.878L57.7873 51.5H58.5133V68H57.7873V52.578L46.2813 68H45.5993V51.5ZM64.328 52.138H60.522V51.5H68.816V52.138H65.054V68H64.328V52.138ZM84.673 68H83.903L80.779 61.708H72.023L68.965 68H68.195L76.423 51.104L84.673 68ZM80.515 61.07L76.379 52.688L72.331 61.07H80.515ZM87.0155 51.5H87.7415V61.07H99.0495V51.5H99.7755V68H99.0495V61.708H87.7415V68H87.0155V51.5ZM106.904 67.362H108.114L116.056 51.126L123.998 67.362H125.054V70.134H124.372V68H107.542V70.134H106.904V67.362ZM123.25 67.362L115.99 52.644L108.796 67.362H123.25ZM142.885 68H142.115L138.991 61.708H130.235L127.177 68H126.407L134.635 51.104L142.885 68ZM138.727 61.07L134.591 52.688L130.543 61.07H138.727ZM145.228 51.5H145.954V61.07H157.262V51.5H157.988V68H157.262V61.708H145.954V68H145.228V51.5ZM161.272 51.5H161.998V66.878L173.46 51.5H174.186V68H173.46V52.578L161.954 68H161.272V51.5ZM190.693 68L183.697 52.864L176.811 68H175.953L183.719 51.126L191.485 68H190.693ZM202.784 68L194.05 58.826V68H193.324V51.5H194.05V57.484L200.936 51.5H201.97L194.248 58.1L203.752 68H202.784ZM205.823 51.5H206.549V66.878L218.011 51.5H218.737V68H218.011V52.578L206.505 68H205.823V51.5ZM222.022 51.5H222.748V61.07H234.056V51.5H234.782V68H234.056V61.708H222.748V68H222.022V51.5Z" fill="white"/>
</svg>
