<svg width="205" height="85" viewBox="0 0 205 85" fill="none" xmlns="http://www.w3.org/2000/svg">
<path d="M135 61.5C141.4 61.5 145.667 56.8333 147 54.5L203 48.5L184 73.58M135 61.5C133.439 61.5 127.165 61.5 117.96 61.5M135 61.5V44M135 38.5L133.5 37.5V33.5H132L131.5 37V37.5H131L132 15L130.5 37L128.5 37.5H128H127.5H126.5L126 34.5C127.333 32.3333 128.9 27.8 124.5 27C119 26 122.515 35.5 123.257 34.5C123.851 33.7 122.667 36.1667 122 37.5H119M135 38.5V42M135 38.5L109 38.9643M119 37.5V33.5H114.5V37.5H118.5M119 37.5H118.5M118.5 37.5H111H107.5L107 39M107 39L107.5 42H109M107 39L109 38.9643M135 42H109M135 42V44M109 38.9643V42M117.96 61.5L118.5 44M117.96 61.5C113.442 61.5 108.219 61.5 102.5 61.5M118.5 44H135M118.5 44L102.5 44.5M102.5 44.5V61.5M102.5 44.5H92M102.5 61.5C98.9562 61.5 95.2222 61.5 91.3483 61.5M92 44.5L91.6741 53M92 44.5V42H107L105.5 20M91.3483 61.5L91.6741 53M91.3483 61.5C89.0635 61.5 86.73 61.5 84.3582 61.5M91.6741 53H85L84.3582 61.5M84.3582 61.5C80.0132 61.5 75.5394 61.5 71 61.5M85 51.5C83.5 49.3333 80.7 44.8 81.5 44C82.0967 43.4033 74.9415 43.5113 68.5 43.743M85 51.5L60.5 50.5L62.5 44C64.194 43.9153 66.3056 43.822 68.5 43.743M85 51.5H71M42 61.5C26.7709 61.5 12.3058 61.5 1 61.5L11.5455 76M42 61.5V51.5H53M42 61.5C45.634 61.5 49.3115 61.5 53 61.5M53 61.5V51.5M53 61.5C59.0179 61.5 65.0651 61.5 71 61.5M53 51.5H71M71 51.5V61.5M11.5455 76L17 83.5L178 81.5L184 73.58M11.5455 76L184 73.58M68.5 43.743L69.5 34.5M105.5 20L109.544 32.5M105.5 20L99.5 33.5M105.5 20L105 41.5M105.5 20V15.5M99.5 33.5L111 37L109.544 32.5M99.5 33.5L96.5 41.5L109.544 32.5M105.5 0V7.5M105.5 7.5H109.544L109 5.5H102.5L101.5 7.5H105L105.5 15.5M105.5 7.5V15.5M105.5 15.5L100.5 15L99.5 18L110.5 18.5L110 15.5" stroke="white"/>
<path d="M17 83.5L12 76L183.5 74L177.5 81.5L17 83.5Z" fill="white" stroke="white"/>
</svg>
